Coordinates
version=1
nRows=8
nColumns=36
inDegrees=yes

Units are S.I. units (second, meters, Newtons, ...)
If the header above contains a line with 'inDegrees', this indicates whether rotational values are in degrees (yes) or radians (no).

endheader
time	pelvis_tilt	pelvis_list	pelvis_rotation	pelvis_tx	pelvis_ty	pelvis_tz	hip_flexion_r	hip_adduction_r	hip_rotation_r	knee_angle_r	knee_angle_r_beta	ankle_angle_r	subtalar_angle_r	mtp_angle_r	hip_flexion_l	hip_adduction_l	hip_rotation_l	knee_angle_l	knee_angle_l_beta	ankle_angle_l	subtalar_angle_l	mtp_angle_l	lumbar_extension	lumbar_bending	lumbar_rotation	arm_flex_r	arm_add_r	arm_rot_r	elbow_flex_r	pro_sup_r	arm_flex_l	arm_add_l	arm_rot_l	elbow_flex_l	pro_sup_l
     11.68333330	     25.68520938	     -4.82141508	      6.42989175	      0.42086939	      0.95958531	      0.07140004	     -7.81518310	      7.92052273	      1.56530462	      0.79867935	      0.01393958	    -11.44301902	     -4.07227578	     -7.49999987	    -26.35161199	     -1.25040572	     -5.61785679	      0.17095035	      0.00298365	     -4.08226804	     -2.86630283	     -7.49999987	    -46.97388583	      3.63017498	      3.38595532	     84.36499054	      5.96904661	     77.23862079	    134.08719830	    102.56830277	    105.16869149	     10.52826496	     92.96631367	     90.51152785	     76.55129742
     11.70000000	     25.83351822	     -4.89051002	      6.42273757	      0.42005758	      0.96035671	      0.07102839	     -7.76983366	      7.95335756	      1.84630303	      0.92272569	      0.01610460	    -11.41726078	     -4.50357848	     -7.49999987	    -26.57589384	     -1.26951913	     -5.62400424	      0.17784174	      0.00310392	     -3.35952322	     -2.74915992	     -7.49999987	    -47.45008501	      3.79179121	      3.77283689	     84.87768123	      5.28741172	     74.55837574	    129.80471823	    100.58741744	    105.67381972	     10.62167724	     92.72903408	     90.42645076	     75.66020548
     11.71666670	     25.88354883	     -4.93290548	      6.38846090	      0.41981205	      0.96108999	      0.07077494	     -7.57073484	      7.96628125	      1.95828972	      1.01304146	      0.01768091	    -11.24129593	     -4.68451603	     -7.49999987	    -26.64636123	     -1.21398667	     -5.70677336	      0.18646749	      0.00325447	     -2.87838347	     -2.64789027	     -7.49999987	    -47.68409133	      3.92760998	      3.97935855	     85.50061161	      5.46788187	     73.85502106	    125.38325069	     99.10722264	    105.89904887	     10.44592533	     92.24337737	     90.52373030	     75.56040563
     11.73333330	     26.11589903	     -4.95170339	      6.25978458	      0.41923929	      0.96208369	      0.07198777	     -7.53265430	      8.00545893	      2.17714918	      1.13912515	      0.01988148	    -11.39428698	     -5.27132147	     -7.49999987	    -26.92090778	     -1.11094375	     -5.60926765	      0.19790447	      0.00345408	     -3.17270662	     -3.55210501	     -7.49999987	    -47.84409300	      3.92842040	      3.54060801	     84.74240631	      5.36175701	     72.50371513	    122.51329466	     97.82703823	    105.66080066	      9.80647006	     92.49966665	     90.61530650	     74.77081230
     11.75000000	     26.24403269	     -5.06719425	      6.18698744	      0.41746974	      0.95941123	      0.07041417	     -7.25652050	      8.11699160	      2.46559606	      1.36956090	      0.02390335	    -11.18853305	     -5.74758299	     -7.49999987	    -26.96895616	     -1.11147667	     -5.57652477	      0.21519615	      0.00375588	     -3.06303057	     -4.22878108	     -7.49999987	    -47.96182893	      4.22647234	      2.33778586	     81.78703117	      2.17831269	     65.26741963	    111.21183131	     90.74296875	    105.76694968	      8.85256212	     93.42126070	     90.07145530	     72.37863397
     11.76666670	     26.12892291	     -5.26038466	      5.85553587	      0.41373420	      0.96170259	      0.07185033	     -6.45470036	      8.27579341	      2.89968725	      1.82855715	      0.03191434	    -11.16154416	     -6.13497584	     -7.49999987	    -26.74302876	     -1.07240244	     -5.56948523	      0.24681565	      0.00430775	     -2.77892287	     -4.65094333	     -7.49999987	    -48.07939282	      4.25006093	      2.18530361	     78.87766000	      0.70133901	     58.51623021	    105.94754201	     88.06363812	    106.06912357	      8.18896034	     94.17686132	     90.92891627	     72.09113970
     11.78333330	     26.35200706	     -5.34039803	      5.71844509	      0.41519157	      0.96094099	      0.07219491	     -6.10644578	      8.38125871	      3.28852723	      2.11481775	      0.03691053	    -11.15154748	     -6.72690134	     -7.49999987	    -26.88233071	     -1.05503013	     -5.50916591	      0.28969704	      0.00505617	     -2.71072922	     -5.24193424	     -7.49999987	    -48.85491591	      4.17618874	      4.11577666	     81.10213032	      0.52806679	     64.59301064	    118.81618756	     89.53898359	    106.75248138	      9.90111600	     94.89271108	     89.99243758	     72.76421272
     11.80000000	     26.21977908	     -5.33463656	      5.48987287	      0.41489090	      0.96622689	      0.07090203	     -5.51172389	      8.31525837	      3.60657616	      2.43275082	      0.04245951	    -11.31006548	     -7.14759991	     -7.49999987	    -26.56469055	     -0.87159498	     -5.06313361	      0.34738754	      0.00606306	     -3.35760843	     -6.67528581	     -7.49999987	    -48.76118129	      4.16216236	      3.20841186	     78.21946741	     -1.02595998	     59.77800744	    118.87558493	     91.32150883	    105.80365111	      9.45341717	     94.50517539	     92.33442666	     74.60374362
